<mxfile host="app.diagrams.net" modified="2020-05-20T16:28:43.077Z" agent="5.0 (Windows NT 10.0; Win64; x64) AppleWebKit/537.36 (KHTML, like Gecko) Chrome/81.0.4044.138 Safari/537.36" etag="cIaF1mMSjsK3asyUuj7w" version="13.1.3" type="github">
  <diagram id="C5RBs43oDa-KdzZeNtuy" name="Page-1">
    <mxGraphModel dx="1021" dy="472" grid="0" gridSize="10" guides="1" tooltips="1" connect="1" arrows="1" fold="1" page="1" pageScale="1" pageWidth="1169" pageHeight="827" math="0" shadow="0">
      <root>
        <mxCell id="WIyWlLk6GJQsqaUBKTNV-0" />
        <mxCell id="WIyWlLk6GJQsqaUBKTNV-1" parent="WIyWlLk6GJQsqaUBKTNV-0" />
        <mxCell id="WIyWlLk6GJQsqaUBKTNV-2" value="" style="rounded=0;html=1;jettySize=auto;orthogonalLoop=1;fontSize=11;endArrow=block;endFill=0;endSize=8;strokeWidth=1;shadow=0;labelBackgroundColor=none;edgeStyle=orthogonalEdgeStyle;" parent="WIyWlLk6GJQsqaUBKTNV-1" source="WIyWlLk6GJQsqaUBKTNV-3" target="WIyWlLk6GJQsqaUBKTNV-6" edge="1">
          <mxGeometry relative="1" as="geometry" />
        </mxCell>
        <mxCell id="WIyWlLk6GJQsqaUBKTNV-3" value="Initialize GUI" style="rounded=1;whiteSpace=wrap;html=1;fontSize=12;glass=0;strokeWidth=1;shadow=0;" parent="WIyWlLk6GJQsqaUBKTNV-1" vertex="1">
          <mxGeometry x="80" y="40" width="120" height="40" as="geometry" />
        </mxCell>
        <mxCell id="WIyWlLk6GJQsqaUBKTNV-4" value="Yes" style="rounded=0;html=1;jettySize=auto;orthogonalLoop=1;fontSize=11;endArrow=block;endFill=0;endSize=8;strokeWidth=1;shadow=0;labelBackgroundColor=none;edgeStyle=orthogonalEdgeStyle;entryX=0.5;entryY=0;entryDx=0;entryDy=0;" parent="WIyWlLk6GJQsqaUBKTNV-1" source="WIyWlLk6GJQsqaUBKTNV-6" target="DEcVG1DuRDRH1UoM58I6-4" edge="1">
          <mxGeometry x="0.2" y="20" relative="1" as="geometry">
            <mxPoint as="offset" />
            <mxPoint x="140" y="259.9999999999999" as="targetPoint" />
          </mxGeometry>
        </mxCell>
        <mxCell id="WIyWlLk6GJQsqaUBKTNV-5" value="No" style="edgeStyle=orthogonalEdgeStyle;rounded=0;html=1;jettySize=auto;orthogonalLoop=1;fontSize=11;endArrow=block;endFill=0;endSize=8;strokeWidth=1;shadow=0;labelBackgroundColor=none;" parent="WIyWlLk6GJQsqaUBKTNV-1" source="WIyWlLk6GJQsqaUBKTNV-6" edge="1">
          <mxGeometry x="-0.3836" y="60" relative="1" as="geometry">
            <mxPoint as="offset" />
            <mxPoint x="140" y="100" as="targetPoint" />
            <Array as="points">
              <mxPoint x="260" y="170" />
              <mxPoint x="260" y="100" />
            </Array>
          </mxGeometry>
        </mxCell>
        <mxCell id="WIyWlLk6GJQsqaUBKTNV-6" value="Is the system connected?" style="rhombus;whiteSpace=wrap;html=1;shadow=0;fontFamily=Helvetica;fontSize=12;align=center;strokeWidth=1;spacing=6;spacingTop=-4;" parent="WIyWlLk6GJQsqaUBKTNV-1" vertex="1">
          <mxGeometry x="90" y="130" width="100" height="80" as="geometry" />
        </mxCell>
        <mxCell id="DEcVG1DuRDRH1UoM58I6-7" value="" style="edgeStyle=orthogonalEdgeStyle;rounded=0;orthogonalLoop=1;jettySize=auto;html=1;exitX=0.5;exitY=1;exitDx=0;exitDy=0;entryX=0.5;entryY=0;entryDx=0;entryDy=0;endArrow=block;endFill=0;" parent="WIyWlLk6GJQsqaUBKTNV-1" source="DEcVG1DuRDRH1UoM58I6-4" target="DEcVG1DuRDRH1UoM58I6-5" edge="1">
          <mxGeometry x="0.3333" y="20" relative="1" as="geometry">
            <mxPoint as="offset" />
          </mxGeometry>
        </mxCell>
        <mxCell id="DEcVG1DuRDRH1UoM58I6-4" value="Get mode" style="rounded=1;whiteSpace=wrap;html=1;" parent="WIyWlLk6GJQsqaUBKTNV-1" vertex="1">
          <mxGeometry x="100" y="250" width="80" height="30" as="geometry" />
        </mxCell>
        <mxCell id="DEcVG1DuRDRH1UoM58I6-10" value="Yes" style="edgeStyle=orthogonalEdgeStyle;rounded=0;orthogonalLoop=1;jettySize=auto;html=1;exitX=1;exitY=0.5;exitDx=0;exitDy=0;entryX=0;entryY=0.5;entryDx=0;entryDy=0;endArrow=block;endFill=0;" parent="WIyWlLk6GJQsqaUBKTNV-1" source="DEcVG1DuRDRH1UoM58I6-5" target="DEcVG1DuRDRH1UoM58I6-9" edge="1">
          <mxGeometry x="-0.3333" y="15" relative="1" as="geometry">
            <mxPoint as="offset" />
          </mxGeometry>
        </mxCell>
        <mxCell id="DEcVG1DuRDRH1UoM58I6-12" value="No" style="edgeStyle=orthogonalEdgeStyle;rounded=0;orthogonalLoop=1;jettySize=auto;html=1;exitX=0.5;exitY=1;exitDx=0;exitDy=0;entryX=0.5;entryY=0;entryDx=0;entryDy=0;endArrow=block;endFill=0;" parent="WIyWlLk6GJQsqaUBKTNV-1" source="DEcVG1DuRDRH1UoM58I6-5" target="DEcVG1DuRDRH1UoM58I6-11" edge="1">
          <mxGeometry x="-0.6667" y="10" relative="1" as="geometry">
            <mxPoint as="offset" />
          </mxGeometry>
        </mxCell>
        <mxCell id="DEcVG1DuRDRH1UoM58I6-5" value="Is it &lt;br&gt;&quot;sensor&quot;&lt;br&gt;&amp;nbsp;mode?" style="rhombus;whiteSpace=wrap;html=1;" parent="WIyWlLk6GJQsqaUBKTNV-1" vertex="1">
          <mxGeometry x="90" y="320" width="100" height="70" as="geometry" />
        </mxCell>
        <mxCell id="DEcVG1DuRDRH1UoM58I6-27" value="Yes" style="edgeStyle=orthogonalEdgeStyle;rounded=0;jumpStyle=arc;jumpSize=10;orthogonalLoop=1;jettySize=auto;html=1;exitX=1;exitY=0.5;exitDx=0;exitDy=0;entryX=0;entryY=0.5;entryDx=0;entryDy=0;endArrow=block;endFill=0;" parent="WIyWlLk6GJQsqaUBKTNV-1" source="DEcVG1DuRDRH1UoM58I6-9" target="DEcVG1DuRDRH1UoM58I6-26" edge="1">
          <mxGeometry x="-0.6667" y="15" relative="1" as="geometry">
            <mxPoint as="offset" />
          </mxGeometry>
        </mxCell>
        <mxCell id="DEcVG1DuRDRH1UoM58I6-42" value="No" style="edgeStyle=orthogonalEdgeStyle;rounded=0;jumpStyle=arc;jumpSize=10;orthogonalLoop=1;jettySize=auto;html=1;exitX=0.5;exitY=0;exitDx=0;exitDy=0;endArrow=block;endFill=0;" parent="WIyWlLk6GJQsqaUBKTNV-1" source="DEcVG1DuRDRH1UoM58I6-9" edge="1">
          <mxGeometry x="-0.0526" y="-15" relative="1" as="geometry">
            <mxPoint x="295" y="265" as="targetPoint" />
            <mxPoint as="offset" />
          </mxGeometry>
        </mxCell>
        <mxCell id="DEcVG1DuRDRH1UoM58I6-9" value="Are RPM and&lt;br&gt;&amp;nbsp;corrector coefficient&lt;br&gt;&amp;nbsp;given?" style="rhombus;whiteSpace=wrap;html=1;" parent="WIyWlLk6GJQsqaUBKTNV-1" vertex="1">
          <mxGeometry x="220" y="312.5" width="150" height="85" as="geometry" />
        </mxCell>
        <mxCell id="DEcVG1DuRDRH1UoM58I6-20" value="Yes" style="edgeStyle=orthogonalEdgeStyle;rounded=0;orthogonalLoop=1;jettySize=auto;html=1;exitX=1;exitY=0.5;exitDx=0;exitDy=0;entryX=0;entryY=0.5;entryDx=0;entryDy=0;endArrow=block;endFill=0;" parent="WIyWlLk6GJQsqaUBKTNV-1" source="DEcVG1DuRDRH1UoM58I6-11" target="DEcVG1DuRDRH1UoM58I6-19" edge="1">
          <mxGeometry x="-0.5556" y="15" relative="1" as="geometry">
            <mxPoint as="offset" />
          </mxGeometry>
        </mxCell>
        <mxCell id="DEcVG1DuRDRH1UoM58I6-15" value="No" style="edgeStyle=orthogonalEdgeStyle;rounded=0;orthogonalLoop=1;jettySize=auto;html=1;exitX=0.5;exitY=1;exitDx=0;exitDy=0;entryX=0.5;entryY=0;entryDx=0;entryDy=0;endArrow=block;endFill=0;" parent="WIyWlLk6GJQsqaUBKTNV-1" source="DEcVG1DuRDRH1UoM58I6-11" target="DEcVG1DuRDRH1UoM58I6-16" edge="1">
          <mxGeometry x="-0.6" y="10" relative="1" as="geometry">
            <mxPoint x="140" y="470" as="sourcePoint" />
            <mxPoint as="offset" />
          </mxGeometry>
        </mxCell>
        <mxCell id="DEcVG1DuRDRH1UoM58I6-25" value="No" style="edgeStyle=orthogonalEdgeStyle;rounded=0;orthogonalLoop=1;jettySize=auto;html=1;exitX=0.5;exitY=1;exitDx=0;exitDy=0;entryX=0.5;entryY=0;entryDx=0;entryDy=0;endArrow=block;endFill=0;" parent="WIyWlLk6GJQsqaUBKTNV-1" source="DEcVG1DuRDRH1UoM58I6-16" target="DEcVG1DuRDRH1UoM58I6-18" edge="1">
          <mxGeometry x="0.2" y="10" relative="1" as="geometry">
            <mxPoint as="offset" />
          </mxGeometry>
        </mxCell>
        <mxCell id="DEcVG1DuRDRH1UoM58I6-60" value="Yes" style="edgeStyle=orthogonalEdgeStyle;rounded=0;jumpStyle=arc;jumpSize=10;orthogonalLoop=1;jettySize=auto;html=1;exitX=1;exitY=0.5;exitDx=0;exitDy=0;entryX=0;entryY=0.5;entryDx=0;entryDy=0;endArrow=block;endFill=0;" parent="WIyWlLk6GJQsqaUBKTNV-1" source="DEcVG1DuRDRH1UoM58I6-16" target="DEcVG1DuRDRH1UoM58I6-54" edge="1">
          <mxGeometry x="-0.3333" y="13" relative="1" as="geometry">
            <mxPoint as="offset" />
          </mxGeometry>
        </mxCell>
        <mxCell id="DEcVG1DuRDRH1UoM58I6-16" value="Is it &lt;br&gt;&quot;actuator&quot;&lt;br&gt;&amp;nbsp;mode?" style="rhombus;whiteSpace=wrap;html=1;" parent="WIyWlLk6GJQsqaUBKTNV-1" vertex="1">
          <mxGeometry x="90" y="577.5" width="100" height="70" as="geometry" />
        </mxCell>
        <mxCell id="DEcVG1DuRDRH1UoM58I6-69" value="Yes" style="edgeStyle=orthogonalEdgeStyle;rounded=0;jumpStyle=arc;jumpSize=10;orthogonalLoop=1;jettySize=auto;html=1;exitX=1;exitY=0.5;exitDx=0;exitDy=0;entryX=0;entryY=0.5;entryDx=0;entryDy=0;endArrow=block;endFill=0;" parent="WIyWlLk6GJQsqaUBKTNV-1" target="DEcVG1DuRDRH1UoM58I6-67" edge="1">
          <mxGeometry x="-0.3333" y="15" relative="1" as="geometry">
            <mxPoint x="190" y="735" as="sourcePoint" />
            <mxPoint as="offset" />
          </mxGeometry>
        </mxCell>
        <mxCell id="DEcVG1DuRDRH1UoM58I6-73" value="No" style="edgeStyle=orthogonalEdgeStyle;rounded=0;jumpStyle=arc;jumpSize=10;orthogonalLoop=1;jettySize=auto;html=1;exitX=0.5;exitY=1;exitDx=0;exitDy=0;endArrow=block;endFill=0;entryX=1;entryY=0.5;entryDx=0;entryDy=0;" parent="WIyWlLk6GJQsqaUBKTNV-1" source="DEcVG1DuRDRH1UoM58I6-18" target="DEcVG1DuRDRH1UoM58I6-4" edge="1">
          <mxGeometry x="-0.9391" y="10" relative="1" as="geometry">
            <mxPoint x="220" y="250" as="targetPoint" />
            <Array as="points">
              <mxPoint x="140" y="790" />
              <mxPoint x="1050" y="790" />
              <mxPoint x="1050" y="265" />
            </Array>
            <mxPoint as="offset" />
          </mxGeometry>
        </mxCell>
        <mxCell id="DEcVG1DuRDRH1UoM58I6-18" value="Is it &lt;br&gt;&quot;stabilization&quot; mode?" style="rhombus;whiteSpace=wrap;html=1;" parent="WIyWlLk6GJQsqaUBKTNV-1" vertex="1">
          <mxGeometry x="90" y="700" width="100" height="70" as="geometry" />
        </mxCell>
        <mxCell id="DEcVG1DuRDRH1UoM58I6-44" value="Yes" style="edgeStyle=orthogonalEdgeStyle;rounded=0;jumpStyle=arc;jumpSize=10;orthogonalLoop=1;jettySize=auto;html=1;exitX=1;exitY=0.5;exitDx=0;exitDy=0;entryX=0;entryY=0.5;entryDx=0;entryDy=0;endArrow=block;endFill=0;" parent="WIyWlLk6GJQsqaUBKTNV-1" source="DEcVG1DuRDRH1UoM58I6-19" target="DEcVG1DuRDRH1UoM58I6-43" edge="1">
          <mxGeometry x="-0.6" y="15" relative="1" as="geometry">
            <mxPoint as="offset" />
          </mxGeometry>
        </mxCell>
        <mxCell id="DEcVG1DuRDRH1UoM58I6-19" value="Is RPM given?" style="rhombus;whiteSpace=wrap;html=1;" parent="WIyWlLk6GJQsqaUBKTNV-1" vertex="1">
          <mxGeometry x="235" y="456.25" width="120" height="57.5" as="geometry" />
        </mxCell>
        <mxCell id="DEcVG1DuRDRH1UoM58I6-11" value="Is it &lt;br&gt;&quot;calibration&quot; mode?" style="rhombus;whiteSpace=wrap;html=1;" parent="WIyWlLk6GJQsqaUBKTNV-1" vertex="1">
          <mxGeometry x="90" y="450" width="100" height="70" as="geometry" />
        </mxCell>
        <mxCell id="DEcVG1DuRDRH1UoM58I6-23" value="No" style="edgeStyle=orthogonalEdgeStyle;rounded=0;orthogonalLoop=1;jettySize=auto;html=1;exitX=0.5;exitY=0;exitDx=0;exitDy=0;endArrow=block;endFill=0;jumpStyle=arc;jumpSize=10;" parent="WIyWlLk6GJQsqaUBKTNV-1" source="DEcVG1DuRDRH1UoM58I6-19" edge="1">
          <mxGeometry x="-0.8944" y="-20" relative="1" as="geometry">
            <mxPoint x="1050" y="430" as="targetPoint" />
            <Array as="points">
              <mxPoint x="295" y="430" />
            </Array>
            <mxPoint as="offset" />
          </mxGeometry>
        </mxCell>
        <mxCell id="DEcVG1DuRDRH1UoM58I6-32" style="edgeStyle=orthogonalEdgeStyle;rounded=0;jumpStyle=arc;jumpSize=10;orthogonalLoop=1;jettySize=auto;html=1;exitX=1;exitY=0.5;exitDx=0;exitDy=0;entryX=0;entryY=0.5;entryDx=0;entryDy=0;endArrow=block;endFill=0;" parent="WIyWlLk6GJQsqaUBKTNV-1" source="DEcVG1DuRDRH1UoM58I6-26" target="DEcVG1DuRDRH1UoM58I6-28" edge="1">
          <mxGeometry relative="1" as="geometry" />
        </mxCell>
        <mxCell id="DEcVG1DuRDRH1UoM58I6-26" value="Send bytes" style="rounded=1;whiteSpace=wrap;html=1;" parent="WIyWlLk6GJQsqaUBKTNV-1" vertex="1">
          <mxGeometry x="430" y="342.5" width="80" height="25" as="geometry" />
        </mxCell>
        <mxCell id="DEcVG1DuRDRH1UoM58I6-33" style="edgeStyle=orthogonalEdgeStyle;rounded=0;jumpStyle=arc;jumpSize=10;orthogonalLoop=1;jettySize=auto;html=1;exitX=1;exitY=0.5;exitDx=0;exitDy=0;entryX=0;entryY=0.5;entryDx=0;entryDy=0;endArrow=block;endFill=0;" parent="WIyWlLk6GJQsqaUBKTNV-1" source="DEcVG1DuRDRH1UoM58I6-28" target="DEcVG1DuRDRH1UoM58I6-29" edge="1">
          <mxGeometry relative="1" as="geometry" />
        </mxCell>
        <mxCell id="DEcVG1DuRDRH1UoM58I6-28" value="Receive data" style="rounded=1;whiteSpace=wrap;html=1;" parent="WIyWlLk6GJQsqaUBKTNV-1" vertex="1">
          <mxGeometry x="540" y="342.5" width="80" height="25" as="geometry" />
        </mxCell>
        <mxCell id="DEcVG1DuRDRH1UoM58I6-34" style="edgeStyle=orthogonalEdgeStyle;rounded=0;jumpStyle=arc;jumpSize=10;orthogonalLoop=1;jettySize=auto;html=1;exitX=1;exitY=0.5;exitDx=0;exitDy=0;entryX=0;entryY=0.5;entryDx=0;entryDy=0;endArrow=block;endFill=0;" parent="WIyWlLk6GJQsqaUBKTNV-1" source="DEcVG1DuRDRH1UoM58I6-29" target="DEcVG1DuRDRH1UoM58I6-30" edge="1">
          <mxGeometry relative="1" as="geometry" />
        </mxCell>
        <mxCell id="DEcVG1DuRDRH1UoM58I6-29" value="Log data" style="rounded=1;whiteSpace=wrap;html=1;" parent="WIyWlLk6GJQsqaUBKTNV-1" vertex="1">
          <mxGeometry x="650" y="342.5" width="70" height="25" as="geometry" />
        </mxCell>
        <mxCell id="DEcVG1DuRDRH1UoM58I6-35" style="edgeStyle=orthogonalEdgeStyle;rounded=0;jumpStyle=arc;jumpSize=10;orthogonalLoop=1;jettySize=auto;html=1;exitX=1;exitY=0.5;exitDx=0;exitDy=0;entryX=0;entryY=0.5;entryDx=0;entryDy=0;endArrow=block;endFill=0;" parent="WIyWlLk6GJQsqaUBKTNV-1" source="DEcVG1DuRDRH1UoM58I6-30" target="DEcVG1DuRDRH1UoM58I6-31" edge="1">
          <mxGeometry relative="1" as="geometry" />
        </mxCell>
        <mxCell id="DEcVG1DuRDRH1UoM58I6-30" value="Show data" style="rounded=1;whiteSpace=wrap;html=1;" parent="WIyWlLk6GJQsqaUBKTNV-1" vertex="1">
          <mxGeometry x="750" y="342.5" width="70" height="25" as="geometry" />
        </mxCell>
        <mxCell id="DEcVG1DuRDRH1UoM58I6-36" value="No" style="edgeStyle=orthogonalEdgeStyle;rounded=0;jumpStyle=arc;jumpSize=10;orthogonalLoop=1;jettySize=auto;html=1;exitX=0.5;exitY=1;exitDx=0;exitDy=0;endArrow=block;endFill=0;" parent="WIyWlLk6GJQsqaUBKTNV-1" source="DEcVG1DuRDRH1UoM58I6-31" edge="1">
          <mxGeometry x="-0.9666" y="10" relative="1" as="geometry">
            <mxPoint x="520" y="355" as="targetPoint" />
            <Array as="points">
              <mxPoint x="890" y="410" />
              <mxPoint x="520" y="410" />
            </Array>
            <mxPoint as="offset" />
          </mxGeometry>
        </mxCell>
        <mxCell id="DEcVG1DuRDRH1UoM58I6-38" value="Yes" style="edgeStyle=orthogonalEdgeStyle;rounded=0;jumpStyle=arc;jumpSize=10;orthogonalLoop=1;jettySize=auto;html=1;exitX=1;exitY=0.5;exitDx=0;exitDy=0;entryX=0;entryY=0.5;entryDx=0;entryDy=0;endArrow=block;endFill=0;" parent="WIyWlLk6GJQsqaUBKTNV-1" source="DEcVG1DuRDRH1UoM58I6-31" target="DEcVG1DuRDRH1UoM58I6-37" edge="1">
          <mxGeometry x="-0.3333" y="15" relative="1" as="geometry">
            <mxPoint as="offset" />
          </mxGeometry>
        </mxCell>
        <mxCell id="DEcVG1DuRDRH1UoM58I6-31" value="Is &lt;br&gt;&quot;stop&quot; signal&lt;br&gt;&amp;nbsp;given?" style="rhombus;whiteSpace=wrap;html=1;" parent="WIyWlLk6GJQsqaUBKTNV-1" vertex="1">
          <mxGeometry x="850" y="317.5" width="80" height="75" as="geometry" />
        </mxCell>
        <mxCell id="DEcVG1DuRDRH1UoM58I6-41" style="edgeStyle=orthogonalEdgeStyle;rounded=0;jumpStyle=arc;jumpSize=10;orthogonalLoop=1;jettySize=auto;html=1;exitX=1;exitY=0.5;exitDx=0;exitDy=0;endArrow=block;endFill=0;" parent="WIyWlLk6GJQsqaUBKTNV-1" source="DEcVG1DuRDRH1UoM58I6-37" edge="1">
          <mxGeometry relative="1" as="geometry">
            <mxPoint x="1050" y="355" as="targetPoint" />
          </mxGeometry>
        </mxCell>
        <mxCell id="DEcVG1DuRDRH1UoM58I6-37" value="Plot data" style="rounded=1;whiteSpace=wrap;html=1;" parent="WIyWlLk6GJQsqaUBKTNV-1" vertex="1">
          <mxGeometry x="960" y="342.5" width="70" height="25" as="geometry" />
        </mxCell>
        <mxCell id="DEcVG1DuRDRH1UoM58I6-50" style="edgeStyle=orthogonalEdgeStyle;rounded=0;jumpStyle=arc;jumpSize=10;orthogonalLoop=1;jettySize=auto;html=1;exitX=1;exitY=0.5;exitDx=0;exitDy=0;entryX=0;entryY=0.5;entryDx=0;entryDy=0;endArrow=block;endFill=0;" parent="WIyWlLk6GJQsqaUBKTNV-1" source="DEcVG1DuRDRH1UoM58I6-43" target="DEcVG1DuRDRH1UoM58I6-45" edge="1">
          <mxGeometry relative="1" as="geometry" />
        </mxCell>
        <mxCell id="DEcVG1DuRDRH1UoM58I6-43" value="Send bytes" style="rounded=1;whiteSpace=wrap;html=1;" parent="WIyWlLk6GJQsqaUBKTNV-1" vertex="1">
          <mxGeometry x="430" y="472.5" width="80" height="25" as="geometry" />
        </mxCell>
        <mxCell id="DEcVG1DuRDRH1UoM58I6-51" style="edgeStyle=orthogonalEdgeStyle;rounded=0;jumpStyle=arc;jumpSize=10;orthogonalLoop=1;jettySize=auto;html=1;exitX=1;exitY=0.5;exitDx=0;exitDy=0;entryX=0;entryY=0.5;entryDx=0;entryDy=0;endArrow=block;endFill=0;" parent="WIyWlLk6GJQsqaUBKTNV-1" source="DEcVG1DuRDRH1UoM58I6-45" target="DEcVG1DuRDRH1UoM58I6-46" edge="1">
          <mxGeometry relative="1" as="geometry" />
        </mxCell>
        <mxCell id="DEcVG1DuRDRH1UoM58I6-45" value="Receive data" style="rounded=1;whiteSpace=wrap;html=1;" parent="WIyWlLk6GJQsqaUBKTNV-1" vertex="1">
          <mxGeometry x="580" y="472.5" width="85" height="25" as="geometry" />
        </mxCell>
        <mxCell id="DEcVG1DuRDRH1UoM58I6-52" style="edgeStyle=orthogonalEdgeStyle;rounded=0;jumpStyle=arc;jumpSize=10;orthogonalLoop=1;jettySize=auto;html=1;exitX=1;exitY=0.5;exitDx=0;exitDy=0;entryX=0;entryY=0.5;entryDx=0;entryDy=0;endArrow=block;endFill=0;" parent="WIyWlLk6GJQsqaUBKTNV-1" source="DEcVG1DuRDRH1UoM58I6-46" target="DEcVG1DuRDRH1UoM58I6-47" edge="1">
          <mxGeometry relative="1" as="geometry" />
        </mxCell>
        <mxCell id="DEcVG1DuRDRH1UoM58I6-46" value="Calculate corrector coefficient" style="rounded=1;whiteSpace=wrap;html=1;" parent="WIyWlLk6GJQsqaUBKTNV-1" vertex="1">
          <mxGeometry x="750" y="465" width="110" height="40" as="geometry" />
        </mxCell>
        <mxCell id="DEcVG1DuRDRH1UoM58I6-53" style="edgeStyle=orthogonalEdgeStyle;rounded=0;jumpStyle=arc;jumpSize=10;orthogonalLoop=1;jettySize=auto;html=1;exitX=1;exitY=0.5;exitDx=0;exitDy=0;endArrow=block;endFill=0;" parent="WIyWlLk6GJQsqaUBKTNV-1" source="DEcVG1DuRDRH1UoM58I6-47" edge="1">
          <mxGeometry relative="1" as="geometry">
            <mxPoint x="1050" y="485" as="targetPoint" />
          </mxGeometry>
        </mxCell>
        <mxCell id="DEcVG1DuRDRH1UoM58I6-47" value="Fill textboxes&amp;nbsp;" style="rounded=1;whiteSpace=wrap;html=1;" parent="WIyWlLk6GJQsqaUBKTNV-1" vertex="1">
          <mxGeometry x="940" y="472.5" width="90" height="25" as="geometry" />
        </mxCell>
        <mxCell id="DEcVG1DuRDRH1UoM58I6-61" value="No" style="edgeStyle=orthogonalEdgeStyle;rounded=0;jumpStyle=arc;jumpSize=10;orthogonalLoop=1;jettySize=auto;html=1;exitX=0.5;exitY=0;exitDx=0;exitDy=0;endArrow=block;endFill=0;" parent="WIyWlLk6GJQsqaUBKTNV-1" source="DEcVG1DuRDRH1UoM58I6-54" edge="1">
          <mxGeometry x="-0.8794" y="-19" relative="1" as="geometry">
            <mxPoint x="1050" y="540" as="targetPoint" />
            <Array as="points">
              <mxPoint x="295" y="540" />
            </Array>
            <mxPoint x="1" as="offset" />
          </mxGeometry>
        </mxCell>
        <mxCell id="DEcVG1DuRDRH1UoM58I6-62" value="Yes" style="edgeStyle=orthogonalEdgeStyle;rounded=0;jumpStyle=arc;jumpSize=10;orthogonalLoop=1;jettySize=auto;html=1;exitX=1;exitY=0.5;exitDx=0;exitDy=0;entryX=0;entryY=0.5;entryDx=0;entryDy=0;endArrow=block;endFill=0;" parent="WIyWlLk6GJQsqaUBKTNV-1" source="DEcVG1DuRDRH1UoM58I6-54" target="DEcVG1DuRDRH1UoM58I6-58" edge="1">
          <mxGeometry x="0.0018" y="119" relative="1" as="geometry">
            <mxPoint x="-117" y="108" as="offset" />
            <mxPoint x="420" y="612.5" as="targetPoint" />
          </mxGeometry>
        </mxCell>
        <mxCell id="DEcVG1DuRDRH1UoM58I6-54" value="Are RPM and&lt;br&gt;required torque&lt;br&gt;&amp;nbsp;given?" style="rhombus;whiteSpace=wrap;html=1;" parent="WIyWlLk6GJQsqaUBKTNV-1" vertex="1">
          <mxGeometry x="230" y="572.5" width="130" height="80" as="geometry" />
        </mxCell>
        <mxCell id="DEcVG1DuRDRH1UoM58I6-74" style="edgeStyle=orthogonalEdgeStyle;rounded=0;jumpStyle=arc;jumpSize=10;orthogonalLoop=1;jettySize=auto;html=1;exitX=1;exitY=0.5;exitDx=0;exitDy=0;endArrow=block;endFill=0;" parent="WIyWlLk6GJQsqaUBKTNV-1" source="DEcVG1DuRDRH1UoM58I6-58" edge="1">
          <mxGeometry relative="1" as="geometry">
            <mxPoint x="1050" y="612.3809523809523" as="targetPoint" />
          </mxGeometry>
        </mxCell>
        <mxCell id="DEcVG1DuRDRH1UoM58I6-58" value="Send bytes" style="rounded=1;whiteSpace=wrap;html=1;" parent="WIyWlLk6GJQsqaUBKTNV-1" vertex="1">
          <mxGeometry x="626" y="600" width="85" height="24" as="geometry" />
        </mxCell>
        <mxCell id="DEcVG1DuRDRH1UoM58I6-70" value="Yes" style="edgeStyle=orthogonalEdgeStyle;rounded=0;jumpStyle=arc;jumpSize=10;orthogonalLoop=1;jettySize=auto;html=1;exitX=1;exitY=0.5;exitDx=0;exitDy=0;entryX=0;entryY=0.5;entryDx=0;entryDy=0;endArrow=block;endFill=0;" parent="WIyWlLk6GJQsqaUBKTNV-1" source="DEcVG1DuRDRH1UoM58I6-67" target="DEcVG1DuRDRH1UoM58I6-68" edge="1">
          <mxGeometry x="-0.6667" y="15" relative="1" as="geometry">
            <mxPoint as="offset" />
          </mxGeometry>
        </mxCell>
        <mxCell id="DEcVG1DuRDRH1UoM58I6-72" value="No" style="edgeStyle=orthogonalEdgeStyle;rounded=0;jumpStyle=arc;jumpSize=10;orthogonalLoop=1;jettySize=auto;html=1;exitX=0.5;exitY=0;exitDx=0;exitDy=0;endArrow=block;endFill=0;" parent="WIyWlLk6GJQsqaUBKTNV-1" source="DEcVG1DuRDRH1UoM58I6-67" edge="1">
          <mxGeometry x="-0.9023" y="-12" relative="1" as="geometry">
            <mxPoint x="1050" y="670" as="targetPoint" />
            <Array as="points">
              <mxPoint x="295" y="670" />
              <mxPoint x="1050" y="670" />
            </Array>
            <mxPoint as="offset" />
          </mxGeometry>
        </mxCell>
        <mxCell id="DEcVG1DuRDRH1UoM58I6-67" value="Are RPM and&lt;br&gt;&amp;nbsp;corrector coefficient&lt;br&gt;&amp;nbsp;given?" style="rhombus;whiteSpace=wrap;html=1;" parent="WIyWlLk6GJQsqaUBKTNV-1" vertex="1">
          <mxGeometry x="220" y="692.5" width="150" height="85" as="geometry" />
        </mxCell>
        <mxCell id="DEcVG1DuRDRH1UoM58I6-71" style="edgeStyle=orthogonalEdgeStyle;rounded=0;jumpStyle=arc;jumpSize=10;orthogonalLoop=1;jettySize=auto;html=1;exitX=1;exitY=0.5;exitDx=0;exitDy=0;endArrow=block;endFill=0;" parent="WIyWlLk6GJQsqaUBKTNV-1" source="DEcVG1DuRDRH1UoM58I6-68" edge="1">
          <mxGeometry relative="1" as="geometry">
            <mxPoint x="1050" y="735" as="targetPoint" />
          </mxGeometry>
        </mxCell>
        <mxCell id="DEcVG1DuRDRH1UoM58I6-68" value="Send bytes" style="rounded=1;whiteSpace=wrap;html=1;" parent="WIyWlLk6GJQsqaUBKTNV-1" vertex="1">
          <mxGeometry x="430" y="722.5" width="80" height="25" as="geometry" />
        </mxCell>
      </root>
    </mxGraphModel>
  </diagram>
</mxfile>
